<!DOCTYPE svg PUBLIC "-//W3C//DTD SVG 1.1//EN" "http://www.w3.org/Graphics/SVG/1.1/DTD/svg11.dtd">
<!-- Uploaded to: SVG Repo, www.svgrepo.com, Transformed by: SVG Repo Mixer Tools -->
<svg height="800px" width="800px" version="1.1" id="Layer_1" xmlns="http://www.w3.org/2000/svg" xmlns:xlink="http://www.w3.org/1999/xlink" viewBox="0 0 512 512" xml:space="preserve" fill="#000000">
<g id="SVGRepo_bgCarrier" stroke-width="0"/>
<g id="SVGRepo_tracerCarrier" stroke-linecap="round" stroke-linejoin="round"/>
<g id="SVGRepo_iconCarrier"> <path style="fill:#75b8ff;" d="M503.319,5.939c-5.507-4.707-12.8-6.767-19.958-5.635L169.555,49.852 c-12.042,1.901-20.909,12.28-20.909,24.47v99.097v156.903H99.097C44.455,330.323,0,371.075,0,421.161 C0,471.25,44.455,512,99.097,512s99.097-40.75,99.097-90.839v-66.065V194.588l264.258-41.725v136.169h-49.548 c-54.642,0-99.097,40.752-99.097,90.839c0,50.09,44.455,90.839,99.097,90.839S512,429.961,512,379.871v-66.065V123.871V24.774 C512,17.53,508.829,10.648,503.319,5.939z"/> <path style="fill:#3480e5;" d="M503.319,5.939c-5.507-4.707-12.8-6.767-19.958-5.635L313.806,27.075v149.26l148.645-23.469v136.167 h-49.548c-54.642,0-99.097,40.752-99.097,90.839c0,50.09,44.455,90.839,99.097,90.839S512,429.961,512,379.871v-66.065V123.871 V24.774C512,17.53,508.829,10.648,503.319,5.939z"/> </g>
</svg>